<?xml version="1.0" encoding="utf-8"?>
<!-- Generator: Adobe Illustrator 15.1.0, SVG Export Plug-In . SVG Version: 6.00 Build 0)  -->
<!DOCTYPE svg PUBLIC "-//W3C//DTD SVG 1.1//EN" "http://www.w3.org/Graphics/SVG/1.1/DTD/svg11.dtd">
<svg version="1.1" id="Layer_1" xmlns="http://www.w3.org/2000/svg" xmlns:xlink="http://www.w3.org/1999/xlink" x="0px" y="0px"
	 width="100px" height="100px" viewBox="0 0 100 100" enable-background="new 0 0 100 100" xml:space="preserve">
<path fill="#FFCC32" d="M98.397,76.842l-37.648-66.33c-2.19-3.86-6.309-6.259-10.747-6.259c-4.442,0-8.561,2.399-10.75,6.259
	L1.605,76.842c-2.164,3.809-2.138,8.529,0.067,12.318c2.206,3.787,6.298,6.142,10.681,6.142h75.293c4.381,0,8.472-2.352,10.68-6.142
	C100.532,85.373,100.56,80.653,98.397,76.842z"/>
<g>
	<rect x="43.75" y="24.395" fill="#FFFFFF" width="12.5" height="37.499"/>
	<path fill="#FFFFFF" d="M50,69.534c-3.829,0-6.944,3.115-6.944,6.944s3.116,6.944,6.944,6.944c3.83,0,6.944-3.115,6.944-6.944
		S53.83,69.534,50,69.534z"/>
</g>
</svg>
