<?xml version="1.0" encoding="utf-8"?>
<!-- Generator: Adobe Illustrator 15.1.0, SVG Export Plug-In . SVG Version: 6.00 Build 0)  -->
<!DOCTYPE svg PUBLIC "-//W3C//DTD SVG 1.1//EN" "http://www.w3.org/Graphics/SVG/1.1/DTD/svg11.dtd">
<svg version="1.1" id="Layer_1" xmlns="http://www.w3.org/2000/svg" xmlns:xlink="http://www.w3.org/1999/xlink" x="0px" y="0px"
	 width="100px" height="100px" viewBox="0 0 100 100" enable-background="new 0 0 100 100" xml:space="preserve">
<path fill="#DA1F43" d="M97.577,26.862L73.124,2.422C71.564,0.86,69.489,0,67.281,0H32.708c-2.183,0-4.314,0.886-5.842,2.421
	l-24.44,24.44C0.884,28.399,0,30.53,0,32.707v34.579c0,2.183,0.884,4.313,2.418,5.842l24.437,24.442
	c1.537,1.544,3.669,2.431,5.852,2.431h34.574c2.208,0,4.283-0.86,5.842-2.42l24.461-24.454C99.12,71.589,100,69.459,100,67.285
	V32.707C100,30.5,99.14,28.425,97.577,26.862z"/>
<polygon fill="#FFFFFF" points="72.098,36.742 63.26,27.902 50,41.162 36.742,27.902 27.902,36.742 41.162,50 27.904,63.257 
	36.743,72.098 50,58.839 63.26,72.098 72.098,63.26 58.839,50 "/>
</svg>
